<svg width="80" height="64" viewBox="0 0 80 64" fill="none" xmlns="http://www.w3.org/2000/svg">
<path d="M8.896 41.838C9.806 41.838 10.541 41.978 11.101 42.258C11.661 42.524 12.186 42.839 12.676 43.203C12.858 43.343 12.998 43.413 13.096 43.413C13.362 43.413 13.537 42.986 13.621 42.132H14.104C14.076 42.65 14.055 43.28 14.041 44.022C14.027 44.764 14.02 45.744 14.02 46.962H13.537C13.439 46.374 13.32 45.807 13.18 45.261C13.04 44.715 12.809 44.246 12.487 43.854C12.081 43.336 11.549 42.937 10.891 42.657C10.233 42.363 9.554 42.216 8.854 42.216C8.154 42.216 7.517 42.391 6.943 42.741C6.383 43.077 5.9 43.567 5.494 44.211C5.088 44.855 4.773 45.632 4.549 46.542C4.339 47.438 4.234 48.453 4.234 49.587C4.234 52.107 4.64 53.955 5.452 55.131C6.264 56.293 7.524 56.874 9.232 56.874C9.736 56.874 10.17 56.804 10.534 56.664C10.912 56.51 11.206 56.363 11.416 56.223C11.682 56.041 11.85 55.873 11.92 55.719C11.99 55.551 12.025 55.334 12.025 55.068V53.052C12.025 52.478 11.969 52.051 11.857 51.771C11.745 51.491 11.535 51.302 11.227 51.204C10.933 51.106 10.492 51.05 9.904 51.036V50.616C10.156 50.63 10.45 50.644 10.786 50.658C11.122 50.658 11.472 50.665 11.836 50.679C12.214 50.679 12.557 50.679 12.865 50.679C13.327 50.679 13.74 50.672 14.104 50.658C14.482 50.644 14.797 50.63 15.049 50.616V51.036C14.741 51.05 14.51 51.099 14.356 51.183C14.202 51.267 14.097 51.435 14.041 51.687C13.999 51.939 13.978 52.324 13.978 52.842V57H13.558C13.544 56.762 13.488 56.503 13.39 56.223C13.306 55.943 13.173 55.803 12.991 55.803C12.907 55.803 12.823 55.824 12.739 55.866C12.655 55.908 12.508 56.006 12.298 56.16C11.836 56.51 11.346 56.79 10.828 57C10.31 57.196 9.708 57.294 9.022 57.294C7.58 57.294 6.341 57 5.305 56.412C4.283 55.81 3.499 54.949 2.953 53.829C2.407 52.709 2.134 51.372 2.134 49.818C2.134 48.18 2.428 46.766 3.016 45.576C3.604 44.386 4.402 43.469 5.41 42.825C6.432 42.167 7.594 41.838 8.896 41.838ZM22.9056 45.891C23.2836 45.891 23.6126 45.968 23.8926 46.122C24.1866 46.276 24.4106 46.479 24.5646 46.731C24.7326 46.969 24.8166 47.242 24.8166 47.55C24.8166 47.9 24.7046 48.208 24.4806 48.474C24.2706 48.74 23.9836 48.873 23.6196 48.873C23.3256 48.873 23.0666 48.782 22.8426 48.6C22.6186 48.404 22.5066 48.131 22.5066 47.781C22.5066 47.515 22.5766 47.291 22.7166 47.109C22.8706 46.913 23.0386 46.759 23.2206 46.647C23.1226 46.507 22.9756 46.437 22.7796 46.437C22.3456 46.437 21.9466 46.57 21.5826 46.836C21.2186 47.088 20.9106 47.417 20.6586 47.823C20.4066 48.229 20.2106 48.663 20.0706 49.125C19.9306 49.573 19.8606 49.993 19.8606 50.385V54.837C19.8606 55.523 20.0566 55.985 20.4486 56.223C20.8546 56.447 21.4006 56.559 22.0866 56.559V57C21.7646 56.986 21.3096 56.972 20.7216 56.958C20.1336 56.93 19.5106 56.916 18.8526 56.916C18.3766 56.916 17.9006 56.93 17.4246 56.958C16.9626 56.972 16.6126 56.986 16.3746 57V56.559C16.9486 56.559 17.3546 56.454 17.5926 56.244C17.8446 56.034 17.9706 55.635 17.9706 55.047V48.474C17.9706 47.844 17.8586 47.382 17.6346 47.088C17.4106 46.78 16.9906 46.626 16.3746 46.626V46.185C16.8226 46.227 17.2566 46.248 17.6766 46.248C18.0826 46.248 18.4676 46.227 18.8316 46.185C19.2096 46.129 19.5526 46.052 19.8606 45.954V48.579C20.0146 48.173 20.2316 47.767 20.5116 47.361C20.8056 46.941 21.1556 46.591 21.5616 46.311C21.9676 46.031 22.4156 45.891 22.9056 45.891ZM30.461 45.891C31.357 45.891 32.162 46.087 32.876 46.479C33.59 46.871 34.157 47.487 34.577 48.327C35.011 49.167 35.228 50.259 35.228 51.603C35.228 52.947 35.011 54.039 34.577 54.879C34.157 55.705 33.59 56.314 32.876 56.706C32.162 57.098 31.357 57.294 30.461 57.294C29.579 57.294 28.774 57.098 28.046 56.706C27.332 56.314 26.758 55.705 26.324 54.879C25.904 54.039 25.694 52.947 25.694 51.603C25.694 50.259 25.904 49.167 26.324 48.327C26.758 47.487 27.332 46.871 28.046 46.479C28.774 46.087 29.579 45.891 30.461 45.891ZM30.461 46.311C29.663 46.311 29.005 46.724 28.487 47.55C27.983 48.376 27.731 49.727 27.731 51.603C27.731 53.479 27.983 54.83 28.487 55.656C29.005 56.468 29.663 56.874 30.461 56.874C31.259 56.874 31.91 56.468 32.414 55.656C32.932 54.83 33.191 53.479 33.191 51.603C33.191 49.727 32.932 48.376 32.414 47.55C31.91 46.724 31.259 46.311 30.461 46.311ZM46.3549 45.954V54.732C46.3549 55.362 46.4669 55.831 46.6909 56.139C46.9289 56.433 47.3489 56.58 47.9509 56.58V57.021C47.5169 56.979 47.0829 56.958 46.6489 56.958C46.2429 56.958 45.8509 56.979 45.4729 57.021C45.1089 57.063 44.7729 57.14 44.4649 57.252V54.774C44.1149 55.684 43.6179 56.335 42.9739 56.727C42.3439 57.105 41.6929 57.294 41.0209 57.294C40.5309 57.294 40.1039 57.224 39.7399 57.084C39.3759 56.944 39.0749 56.748 38.8369 56.496C38.5709 56.216 38.3889 55.852 38.2909 55.404C38.1929 54.956 38.1439 54.403 38.1439 53.745V48.474C38.1439 47.844 38.0319 47.382 37.8079 47.088C37.5839 46.78 37.1639 46.626 36.5479 46.626V46.185C36.9959 46.227 37.4299 46.248 37.8499 46.248C38.2559 46.248 38.6409 46.227 39.0049 46.185C39.3829 46.129 39.7259 46.052 40.0339 45.954V54.207C40.0339 54.641 40.0619 55.04 40.1179 55.404C40.1739 55.768 40.3139 56.062 40.5379 56.286C40.7619 56.51 41.1259 56.622 41.6299 56.622C42.1759 56.622 42.6589 56.454 43.0789 56.118C43.5129 55.782 43.8489 55.327 44.0869 54.753C44.3389 54.179 44.4649 53.535 44.4649 52.821V48.474C44.4649 47.844 44.3529 47.382 44.1289 47.088C43.9049 46.78 43.4849 46.626 42.8689 46.626V46.185C43.3169 46.227 43.7509 46.248 44.1709 46.248C44.5769 46.248 44.9619 46.227 45.3259 46.185C45.7039 46.129 46.0469 46.052 46.3549 45.954ZM52.3621 45.954V58.848C52.3621 59.45 52.5371 59.849 52.8871 60.045C53.2511 60.255 53.7481 60.36 54.3781 60.36V60.801C54.0701 60.787 53.6431 60.766 53.0971 60.738C52.5511 60.724 51.9701 60.717 51.3541 60.717C50.9201 60.717 50.4861 60.724 50.0521 60.738C49.6321 60.766 49.3101 60.787 49.0861 60.801V60.36C49.5901 60.36 49.9471 60.269 50.1571 60.087C50.3671 59.905 50.4721 59.562 50.4721 59.058V48.474C50.4721 47.844 50.3601 47.382 50.1361 47.088C49.9121 46.78 49.4921 46.626 48.8761 46.626V46.185C49.3241 46.227 49.7581 46.248 50.1781 46.248C50.5841 46.248 50.9691 46.227 51.3331 46.185C51.7111 46.129 52.0541 46.052 52.3621 45.954ZM55.7221 45.891C56.4641 45.891 57.1291 46.094 57.7171 46.5C58.3051 46.892 58.7671 47.473 59.1031 48.243C59.4531 49.013 59.6281 49.965 59.6281 51.099C59.6281 51.855 59.5371 52.604 59.3551 53.346C59.1731 54.074 58.8861 54.739 58.4941 55.341C58.1161 55.929 57.6191 56.405 57.0031 56.769C56.4011 57.119 55.6731 57.294 54.8191 57.294C54.1611 57.294 53.5871 57.14 53.0971 56.832C52.6211 56.524 52.2991 56.153 52.1311 55.719L52.3411 55.425C52.5371 55.817 52.8171 56.146 53.1811 56.412C53.5591 56.678 54.0281 56.811 54.5881 56.811C55.3721 56.811 55.9811 56.566 56.4151 56.076C56.8491 55.586 57.1501 54.935 57.3181 54.123C57.5001 53.297 57.5911 52.387 57.5911 51.393C57.5911 50.273 57.5001 49.356 57.3181 48.642C57.1361 47.928 56.8631 47.396 56.4991 47.046C56.1351 46.696 55.6871 46.521 55.1551 46.521C54.4691 46.521 53.8461 46.808 53.2861 47.382C52.7261 47.942 52.3691 48.796 52.2151 49.944L51.9631 49.65C52.1171 48.46 52.5371 47.536 53.2231 46.878C53.9231 46.22 54.7561 45.891 55.7221 45.891Z" fill="#52397D"/>
<path d="M23.526 30.364C23.982 30.364 24.36 30.418 24.66 30.526C24.96 30.622 25.206 30.748 25.398 30.904C25.554 31.024 25.68 31.156 25.776 31.3C25.872 31.444 25.944 31.588 25.992 31.732C26.04 31.876 26.064 32.014 26.064 32.146C26.064 32.446 25.956 32.68 25.74 32.848C25.536 33.016 25.308 33.1 25.056 33.1C24.816 33.1 24.6 33.022 24.408 32.866C24.216 32.71 24.12 32.488 24.12 32.2C24.12 31.936 24.21 31.714 24.39 31.534C24.57 31.342 24.798 31.234 25.074 31.21C25.026 31.054 24.876 30.922 24.624 30.814C24.384 30.694 24.078 30.634 23.706 30.634C23.094 30.634 22.59 30.82 22.194 31.192C21.81 31.552 21.618 32.08 21.618 32.776C21.618 33.112 21.678 33.454 21.798 33.802C21.93 34.15 22.176 34.492 22.536 34.828C22.74 34.792 22.95 34.768 23.166 34.756C23.382 34.732 23.544 34.72 23.652 34.72C23.868 34.72 24.042 34.756 24.174 34.828C24.306 34.9 24.372 35.002 24.372 35.134C24.372 35.242 24.324 35.326 24.228 35.386C24.144 35.446 24.024 35.476 23.868 35.476C23.64 35.476 23.4 35.428 23.148 35.332C22.896 35.224 22.698 35.14 22.554 35.08C21.858 35.284 21.294 35.62 20.862 36.088C20.43 36.544 20.214 37.192 20.214 38.032C20.214 38.86 20.43 39.562 20.862 40.138C21.294 40.714 21.87 41.158 22.59 41.47C23.322 41.77 24.138 41.92 25.038 41.92C25.674 41.92 26.274 41.848 26.838 41.704C27.414 41.548 27.918 41.326 28.35 41.038C28.794 40.75 29.142 40.408 29.394 40.012C29.646 39.604 29.772 39.142 29.772 38.626C29.772 38.398 29.724 38.11 29.628 37.762C29.532 37.402 29.334 37.054 29.034 36.718C28.734 36.37 28.272 36.1 27.648 35.908L27.864 35.728C28.74 35.992 29.364 36.418 29.736 37.006C30.108 37.582 30.294 38.23 30.294 38.95C30.294 39.67 30.078 40.36 29.646 41.02C29.214 41.68 28.59 42.22 27.774 42.64C26.958 43.048 25.968 43.252 24.804 43.252C24.024 43.252 23.28 43.15 22.572 42.946C21.876 42.742 21.258 42.448 20.718 42.064C20.178 41.668 19.752 41.194 19.44 40.642C19.128 40.09 18.972 39.466 18.972 38.77C18.972 38.122 19.098 37.57 19.35 37.114C19.602 36.646 19.914 36.262 20.286 35.962C20.658 35.662 21.03 35.434 21.402 35.278C21.774 35.11 22.074 34.996 22.302 34.936C21.906 34.756 21.57 34.546 21.294 34.306C21.03 34.054 20.826 33.784 20.682 33.496C20.55 33.196 20.484 32.902 20.484 32.614C20.484 32.326 20.55 32.05 20.682 31.786C20.814 31.51 21.006 31.264 21.258 31.048C21.51 30.832 21.822 30.664 22.194 30.544C22.578 30.424 23.022 30.364 23.526 30.364ZM30.078 30.004C30.822 30.004 31.446 30.22 31.95 30.652C32.454 31.072 32.706 31.666 32.706 32.434C32.706 32.842 32.628 33.208 32.472 33.532C32.328 33.844 32.124 34.12 31.86 34.36C31.608 34.6 31.32 34.798 30.996 34.954C30.72 35.086 30.354 35.23 29.898 35.386C29.454 35.542 28.974 35.698 28.458 35.854C27.954 36.01 27.468 36.166 27 36.322C26.544 36.466 26.172 36.592 25.884 36.7C25.44 36.868 25.062 37.078 24.75 37.33C24.45 37.57 24.3 37.882 24.3 38.266C24.3 38.578 24.39 38.842 24.57 39.058C24.75 39.274 24.966 39.436 25.218 39.544C25.482 39.652 25.728 39.706 25.956 39.706C26.064 39.706 26.196 39.694 26.352 39.67C26.52 39.634 26.67 39.586 26.802 39.526C26.934 39.466 27.012 39.394 27.036 39.31C26.844 39.274 26.652 39.19 26.46 39.058C26.28 38.914 26.19 38.692 26.19 38.392C26.19 38.104 26.286 37.876 26.478 37.708C26.67 37.54 26.904 37.456 27.18 37.456C27.468 37.456 27.696 37.546 27.864 37.726C28.044 37.906 28.134 38.14 28.134 38.428C28.134 38.764 28.02 39.052 27.792 39.292C27.576 39.52 27.3 39.694 26.964 39.814C26.64 39.922 26.316 39.976 25.992 39.976C25.656 39.976 25.314 39.904 24.966 39.76C24.618 39.616 24.33 39.394 24.102 39.094C23.874 38.782 23.76 38.374 23.76 37.87C23.76 37.45 23.85 37.078 24.03 36.754C24.222 36.43 24.504 36.142 24.876 35.89C25.248 35.638 25.704 35.422 26.244 35.242C26.604 35.122 27.042 34.99 27.558 34.846C28.074 34.702 28.602 34.546 29.142 34.378C29.694 34.21 30.192 34.024 30.636 33.82C31.236 33.544 31.644 33.262 31.86 32.974C32.076 32.686 32.184 32.392 32.184 32.092C32.184 31.744 32.088 31.438 31.896 31.174C31.704 30.898 31.446 30.682 31.122 30.526C30.81 30.358 30.468 30.274 30.096 30.274C29.952 30.274 29.832 30.286 29.736 30.31C29.64 30.334 29.58 30.376 29.556 30.436C29.724 30.52 29.85 30.64 29.934 30.796C30.018 30.952 30.06 31.108 30.06 31.264C30.06 31.516 29.958 31.726 29.754 31.894C29.562 32.062 29.328 32.146 29.052 32.146C28.824 32.146 28.608 32.074 28.404 31.93C28.2 31.774 28.098 31.546 28.098 31.246C28.098 30.934 28.2 30.688 28.404 30.508C28.62 30.328 28.878 30.202 29.178 30.13C29.49 30.046 29.79 30.004 30.078 30.004Z" fill="#52397D"/>
<path d="M60.232 16.344V16.984C59.5067 17.0053 58.9627 17.0907 58.6 17.24C58.2373 17.368 57.992 17.624 57.864 18.008C57.7573 18.3707 57.704 18.9467 57.704 19.736V35.608C57.704 36.376 57.7573 36.952 57.864 37.336C57.992 37.72 58.2373 37.976 58.6 38.104C58.9627 38.232 59.5067 38.3173 60.232 38.36V39C59.6987 38.9573 59.0373 38.936 58.248 38.936C57.4587 38.9147 56.6587 38.904 55.848 38.904C54.952 38.904 54.1093 38.9147 53.32 38.936C52.5307 38.936 51.9013 38.9573 51.432 39V38.36C52.1573 38.3173 52.7013 38.232 53.064 38.104C53.448 37.976 53.704 37.72 53.832 37.336C53.96 36.952 54.024 36.376 54.024 35.608V18.104L54.184 18.168L46.312 39.128H45.8L37.544 18.392V34.776C37.544 35.672 37.608 36.376 37.736 36.888C37.864 37.3787 38.1413 37.7307 38.568 37.944C38.9947 38.1573 39.6453 38.296 40.52 38.36V39C40.1147 38.9573 39.592 38.936 38.952 38.936C38.3333 38.9147 37.7467 38.904 37.192 38.904C36.6587 38.904 36.1253 38.9147 35.592 38.936C35.0587 38.936 34.6213 38.9573 34.28 39V38.36C34.984 38.296 35.5173 38.168 35.88 37.976C36.2427 37.7627 36.488 37.4107 36.616 36.92C36.744 36.4293 36.808 35.7573 36.808 34.904V19.736C36.808 18.9467 36.744 18.3707 36.616 18.008C36.488 17.624 36.2427 17.368 35.88 17.24C35.5173 17.0907 34.984 17.0053 34.28 16.984V16.344C34.6213 16.3653 35.0587 16.3867 35.592 16.408C36.1253 16.4293 36.6587 16.44 37.192 16.44C37.8107 16.44 38.4293 16.4293 39.048 16.408C39.688 16.3867 40.232 16.3653 40.68 16.344L47.752 34.52L47.144 34.936L54.088 16.44C54.3653 16.44 54.6533 16.44 54.952 16.44C55.2507 16.44 55.5493 16.44 55.848 16.44C56.6587 16.44 57.4587 16.4293 58.248 16.408C59.0373 16.3867 59.6987 16.3653 60.232 16.344Z" fill="#52397D"/>
<path d="M8.48 15.96C9.61067 15.96 10.4747 16.088 11.072 16.344C11.6693 16.6 12.192 16.8773 12.64 17.176C12.896 17.3253 13.0987 17.4427 13.248 17.528C13.4187 17.592 13.5787 17.624 13.728 17.624C13.9413 17.624 14.0907 17.5067 14.176 17.272C14.2827 17.0373 14.368 16.6853 14.432 16.216H15.168C15.1467 16.6 15.1147 17.0587 15.072 17.592C15.0507 18.104 15.0293 18.7867 15.008 19.64C15.008 20.4933 15.008 21.6133 15.008 23H14.272C14.208 21.9547 13.9733 20.9413 13.568 19.96C13.184 18.9787 12.608 18.1787 11.84 17.56C11.0933 16.9413 10.1333 16.632 8.96 16.632C7.872 16.632 6.96533 16.9627 6.24 17.624C5.536 18.264 5.184 19.1173 5.184 20.184C5.184 21.1227 5.41867 21.912 5.888 22.552C6.35733 23.1707 6.99733 23.7573 7.808 24.312C8.64 24.8453 9.57867 25.4427 10.624 26.104C11.6907 26.7867 12.6507 27.4693 13.504 28.152C14.3573 28.8133 15.0293 29.5493 15.52 30.36C16.0107 31.1707 16.256 32.152 16.256 33.304C16.256 34.6907 15.9253 35.8427 15.264 36.76C14.624 37.656 13.76 38.328 12.672 38.776C11.584 39.224 10.3893 39.448 9.088 39.448C7.89333 39.448 6.944 39.32 6.24 39.064C5.536 38.808 4.93867 38.5413 4.448 38.264C3.97867 37.9653 3.616 37.816 3.36 37.816C3.14667 37.816 2.98667 37.9333 2.88 38.168C2.79467 38.4027 2.72 38.7547 2.656 39.224H1.92C1.96267 38.7547 1.984 38.2107 1.984 37.592C2.00533 36.952 2.016 36.12 2.016 35.096C2.03733 34.072 2.048 32.7813 2.048 31.224H2.784C2.86933 32.5467 3.104 33.784 3.488 34.936C3.89333 36.088 4.50133 37.016 5.312 37.72C6.144 38.4027 7.24267 38.744 8.608 38.744C9.33333 38.744 10.0053 38.6053 10.624 38.328C11.2427 38.0507 11.744 37.6133 12.128 37.016C12.512 36.4187 12.704 35.6507 12.704 34.712C12.704 33.8373 12.4907 33.0693 12.064 32.408C11.6587 31.7467 11.0827 31.1387 10.336 30.584C9.61067 30.008 8.75733 29.4213 7.776 28.824C6.77333 28.184 5.83467 27.544 4.96 26.904C4.08533 26.264 3.38133 25.5173 2.848 24.664C2.336 23.8107 2.08 22.7973 2.08 21.624C2.08 20.3227 2.37867 19.256 2.976 18.424C3.59467 17.592 4.384 16.9733 5.344 16.568C6.32533 16.1627 7.37067 15.96 8.48 15.96Z" fill="#52397D"/>
<path d="M22.005 24L21.68 22.11C21.4742 22.04 21.2575 21.945 21.03 21.825C20.8025 21.705 20.6021 21.58 20.4288 21.45L18.5112 22.26L17 19.8L18.755 18.615C18.7333 18.525 18.7198 18.4225 18.7144 18.3075C18.709 18.1925 18.7063 18.09 18.7063 18C18.7063 17.91 18.709 17.8075 18.7144 17.6925C18.7198 17.5775 18.7333 17.475 18.755 17.385L17 16.2L18.5112 13.74L20.4288 14.55C20.6021 14.42 20.8025 14.295 21.03 14.175C21.2575 14.055 21.4742 13.965 21.68 13.905L22.005 12H24.995L25.32 13.89C25.5258 13.96 25.7452 14.0525 25.9781 14.1675C26.211 14.2825 26.4088 14.41 26.5713 14.55L28.4887 13.74L30 16.2L28.245 17.355C28.2667 17.455 28.2802 17.5625 28.2856 17.6775C28.291 17.7925 28.2937 17.9 28.2937 18C28.2937 18.1 28.291 18.205 28.2856 18.315C28.2802 18.425 28.2667 18.53 28.245 18.63L30 19.8L28.4887 22.26L26.5713 21.45C26.3979 21.58 26.2002 21.7075 25.9781 21.8325C25.756 21.9575 25.5367 22.05 25.32 22.11L24.995 24H22.005ZM23.5 19.95C24.085 19.95 24.5833 19.76 24.995 19.38C25.4067 19 25.6125 18.54 25.6125 18C25.6125 17.46 25.4067 17 24.995 16.62C24.5833 16.24 24.085 16.05 23.5 16.05C22.915 16.05 22.4167 16.24 22.005 16.62C21.5933 17 21.3875 17.46 21.3875 18C21.3875 18.54 21.5933 19 22.005 19.38C22.4167 19.76 22.915 19.95 23.5 19.95ZM23.5 19.05C23.1858 19.05 22.9177 18.9475 22.6956 18.7425C22.4735 18.5375 22.3625 18.29 22.3625 18C22.3625 17.71 22.4735 17.4625 22.6956 17.2575C22.9177 17.0525 23.1858 16.95 23.5 16.95C23.8142 16.95 24.0823 17.0525 24.3044 17.2575C24.5265 17.4625 24.6375 17.71 24.6375 18C24.6375 18.29 24.5265 18.5375 24.3044 18.7425C24.0823 18.9475 23.8142 19.05 23.5 19.05ZM22.785 23.1H24.215L24.4425 21.42C24.8 21.34 25.1385 21.215 25.4581 21.045C25.7777 20.875 26.0675 20.67 26.3275 20.43L28.05 21.12L28.7 20.04L27.1725 19.005C27.2158 18.835 27.251 18.6675 27.2781 18.5025C27.3052 18.3375 27.3188 18.17 27.3188 18C27.3188 17.83 27.3079 17.6625 27.2863 17.4975C27.2646 17.3325 27.2267 17.165 27.1725 16.995L28.7 15.96L28.05 14.88L26.3275 15.57C26.0783 15.31 25.7967 15.0925 25.4825 14.9175C25.1683 14.7425 24.8217 14.63 24.4425 14.58L24.215 12.9H22.785L22.5575 14.58C22.1892 14.65 21.8452 14.77 21.5256 14.94C21.206 15.11 20.9217 15.32 20.6725 15.57L18.95 14.88L18.3 15.96L19.8275 16.995C19.7842 17.165 19.749 17.3325 19.7219 17.4975C19.6948 17.6625 19.6813 17.83 19.6813 18C19.6813 18.17 19.6948 18.3375 19.7219 18.5025C19.749 18.6675 19.7842 18.835 19.8275 19.005L18.3 20.04L18.95 21.12L20.6725 20.43C20.9325 20.67 21.2223 20.875 21.5419 21.045C21.8615 21.215 22.2 21.34 22.5575 21.42L22.785 23.1Z" fill="#52397D"/>
<path d="M31.005 15L30.68 13.11C30.4742 13.04 30.2575 12.945 30.03 12.825C29.8025 12.705 29.6021 12.58 29.4288 12.45L27.5112 13.26L26 10.8L27.755 9.615C27.7333 9.525 27.7198 9.4225 27.7144 9.3075C27.709 9.1925 27.7063 9.09 27.7063 9C27.7063 8.91 27.709 8.8075 27.7144 8.6925C27.7198 8.5775 27.7333 8.475 27.755 8.385L26 7.2L27.5112 4.74L29.4288 5.55C29.6021 5.42 29.8025 5.295 30.03 5.175C30.2575 5.055 30.4742 4.965 30.68 4.905L31.005 3H33.995L34.32 4.89C34.5258 4.96 34.7452 5.0525 34.9781 5.1675C35.211 5.2825 35.4088 5.41 35.5713 5.55L37.4887 4.74L39 7.2L37.245 8.355C37.2667 8.455 37.2802 8.5625 37.2856 8.6775C37.291 8.7925 37.2937 8.9 37.2937 9C37.2937 9.1 37.291 9.205 37.2856 9.315C37.2802 9.425 37.2667 9.53 37.245 9.63L39 10.8L37.4887 13.26L35.5713 12.45C35.3979 12.58 35.2002 12.7075 34.9781 12.8325C34.756 12.9575 34.5367 13.05 34.32 13.11L33.995 15H31.005ZM32.5 10.95C33.085 10.95 33.5833 10.76 33.995 10.38C34.4067 10 34.6125 9.54 34.6125 9C34.6125 8.46 34.4067 8 33.995 7.62C33.5833 7.24 33.085 7.05 32.5 7.05C31.915 7.05 31.4167 7.24 31.005 7.62C30.5933 8 30.3875 8.46 30.3875 9C30.3875 9.54 30.5933 10 31.005 10.38C31.4167 10.76 31.915 10.95 32.5 10.95ZM32.5 10.05C32.1858 10.05 31.9177 9.9475 31.6956 9.7425C31.4735 9.5375 31.3625 9.29 31.3625 9C31.3625 8.71 31.4735 8.4625 31.6956 8.2575C31.9177 8.0525 32.1858 7.95 32.5 7.95C32.8142 7.95 33.0823 8.0525 33.3044 8.2575C33.5265 8.4625 33.6375 8.71 33.6375 9C33.6375 9.29 33.5265 9.5375 33.3044 9.7425C33.0823 9.9475 32.8142 10.05 32.5 10.05ZM31.785 14.1H33.215L33.4425 12.42C33.8 12.34 34.1385 12.215 34.4581 12.045C34.7777 11.875 35.0675 11.67 35.3275 11.43L37.05 12.12L37.7 11.04L36.1725 10.005C36.2158 9.835 36.251 9.6675 36.2781 9.5025C36.3052 9.3375 36.3188 9.17 36.3188 9C36.3188 8.83 36.3079 8.6625 36.2863 8.4975C36.2646 8.3325 36.2267 8.165 36.1725 7.995L37.7 6.96L37.05 5.88L35.3275 6.57C35.0783 6.31 34.7967 6.0925 34.4825 5.9175C34.1683 5.7425 33.8217 5.63 33.4425 5.58L33.215 3.9H31.785L31.5575 5.58C31.1892 5.65 30.8452 5.77 30.5256 5.94C30.206 6.11 29.9217 6.32 29.6725 6.57L27.95 5.88L27.3 6.96L28.8275 7.995C28.7842 8.165 28.749 8.3325 28.7219 8.4975C28.6948 8.6625 28.6813 8.83 28.6813 9C28.6813 9.17 28.6948 9.3375 28.7219 9.5025C28.749 9.6675 28.7842 9.835 28.8275 10.005L27.3 11.04L27.95 12.12L29.6725 11.43C29.9325 11.67 30.2223 11.875 30.5419 12.045C30.8615 12.215 31.2 12.34 31.5575 12.42L31.785 14.1Z" fill="#52397D"/>
<path d="M18.005 12L17.68 10.11C17.4742 10.04 17.2575 9.945 17.03 9.825C16.8025 9.705 16.6021 9.58 16.4288 9.45L14.5112 10.26L13 7.8L14.755 6.615C14.7333 6.525 14.7198 6.4225 14.7144 6.3075C14.709 6.1925 14.7063 6.09 14.7063 6C14.7063 5.91 14.709 5.8075 14.7144 5.6925C14.7198 5.5775 14.7333 5.475 14.755 5.385L13 4.2L14.5112 1.74L16.4288 2.55C16.6021 2.42 16.8025 2.295 17.03 2.175C17.2575 2.055 17.4742 1.965 17.68 1.905L18.005 0H20.995L21.32 1.89C21.5258 1.96 21.7452 2.0525 21.9781 2.1675C22.211 2.2825 22.4088 2.41 22.5713 2.55L24.4887 1.74L26 4.2L24.245 5.355C24.2667 5.455 24.2802 5.5625 24.2856 5.6775C24.291 5.7925 24.2937 5.9 24.2937 6C24.2937 6.1 24.291 6.205 24.2856 6.315C24.2802 6.425 24.2667 6.53 24.245 6.63L26 7.8L24.4887 10.26L22.5713 9.45C22.3979 9.58 22.2002 9.7075 21.9781 9.8325C21.756 9.9575 21.5367 10.05 21.32 10.11L20.995 12H18.005ZM19.5 7.95C20.085 7.95 20.5833 7.76 20.995 7.38C21.4067 7 21.6125 6.54 21.6125 6C21.6125 5.46 21.4067 5 20.995 4.62C20.5833 4.24 20.085 4.05 19.5 4.05C18.915 4.05 18.4167 4.24 18.005 4.62C17.5933 5 17.3875 5.46 17.3875 6C17.3875 6.54 17.5933 7 18.005 7.38C18.4167 7.76 18.915 7.95 19.5 7.95ZM19.5 7.05C19.1858 7.05 18.9177 6.9475 18.6956 6.7425C18.4735 6.5375 18.3625 6.29 18.3625 6C18.3625 5.71 18.4735 5.4625 18.6956 5.2575C18.9177 5.0525 19.1858 4.95 19.5 4.95C19.8142 4.95 20.0823 5.0525 20.3044 5.2575C20.5265 5.4625 20.6375 5.71 20.6375 6C20.6375 6.29 20.5265 6.5375 20.3044 6.7425C20.0823 6.9475 19.8142 7.05 19.5 7.05ZM18.785 11.1H20.215L20.4425 9.42C20.8 9.34 21.1385 9.215 21.4581 9.045C21.7777 8.875 22.0675 8.67 22.3275 8.43L24.05 9.12L24.7 8.04L23.1725 7.005C23.2158 6.835 23.251 6.6675 23.2781 6.5025C23.3052 6.3375 23.3188 6.17 23.3188 6C23.3188 5.83 23.3079 5.6625 23.2863 5.4975C23.2646 5.3325 23.2267 5.165 23.1725 4.995L24.7 3.96L24.05 2.88L22.3275 3.57C22.0783 3.31 21.7967 3.0925 21.4825 2.9175C21.1683 2.7425 20.8217 2.63 20.4425 2.58L20.215 0.9H18.785L18.5575 2.58C18.1892 2.65 17.8452 2.77 17.5256 2.94C17.206 3.11 16.9217 3.32 16.6725 3.57L14.95 2.88L14.3 3.96L15.8275 4.995C15.7842 5.165 15.749 5.3325 15.7219 5.4975C15.6948 5.6625 15.6813 5.83 15.6813 6C15.6813 6.17 15.6948 6.3375 15.7219 6.5025C15.749 6.6675 15.7842 6.835 15.8275 7.005L14.3 8.04L14.95 9.12L16.6725 8.43C16.9325 8.67 17.2223 8.875 17.5419 9.045C17.8615 9.215 18.2 9.34 18.5575 9.42L18.785 11.1Z" fill="#52397D"/>
</svg>
